<?xml version="1.0" standalone="no"?>
<!DOCTYPE svg PUBLIC "-//W3C//DTD SVG 20010904//EN"
 "http://www.w3.org/TR/2001/REC-SVG-20010904/DTD/svg10.dtd">
<svg version="1.0" xmlns="http://www.w3.org/2000/svg"
 width="1080.000000pt" height="1080.000000pt" viewBox="0 0 1080.000000 1080.000000"
 preserveAspectRatio="xMidYMid meet">

<g transform="translate(0.000000,1080.000000) scale(0.100000,-0.100000)"
fill="#000000" stroke="none">
<path d="M5561 6804 c-1 -41 -20 -94 -33 -94 -5 0 -8 -7 -8 -15 0 -8 -4 -15
-10 -15 -5 0 -10 -7 -10 -15 0 -8 -3 -15 -8 -15 -4 0 -18 -21 -32 -47 -13 -27
-27 -50 -31 -53 -9 -7 -99 -147 -99 -155 0 -3 -10 -17 -23 -30 -12 -14 -31
-42 -42 -62 -11 -21 -26 -44 -32 -51 -7 -7 -13 -17 -13 -21 0 -4 -8 -17 -17
-29 -10 -11 -26 -30 -35 -41 -10 -12 -18 -27 -18 -34 0 -7 -9 -19 -20 -27 -11
-8 -20 -21 -20 -30 0 -9 -9 -22 -20 -30 -11 -8 -20 -20 -20 -26 0 -7 -10 -21
-23 -31 -13 -10 -22 -23 -20 -30 2 -6 -5 -17 -16 -23 -17 -8 -21 -8 -21 4 0
26 -48 27 -53 1 -1 -4 -49 -7 -106 -6 -92 2 -103 0 -97 -14 5 -13 -1 -16 -32
-13 -30 2 -37 7 -34 23 2 18 1 18 -11 -3 -7 -12 -16 -19 -20 -16 -4 4 -7 0 -7
-9 0 -9 -4 -17 -9 -17 -5 0 -11 -6 -13 -12 -2 -7 -68 -112 -149 -233 -80 -121
-158 -241 -174 -267 -16 -26 -33 -44 -39 -41 -5 3 -6 1 -2 -5 4 -7 -4 -22 -18
-36 -14 -13 -26 -31 -26 -40 0 -10 -5 -14 -11 -10 -7 4 -10 1 -7 -6 2 -7 -5
-23 -17 -36 -11 -12 -27 -35 -35 -51 -8 -15 -18 -30 -21 -33 -3 -3 -16 -25
-30 -50 -13 -25 -27 -47 -30 -50 -12 -10 -97 -136 -143 -212 -37 -62 -46 -85
-46 -123 0 -61 13 -83 64 -106 40 -17 76 -19 539 -19 432 -1 500 1 526 15 31
16 114 136 288 417 97 157 306 491 537 857 150 239 186 311 156 311 -5 0 -11
21 -12 48 l-1 47 -4 -45 c-3 -25 -8 -49 -14 -54 -5 -6 -9 -17 -9 -26 0 -9 -9
-26 -20 -38 -11 -12 -20 -25 -20 -29 0 -7 -14 -25 -59 -79 -5 -7 -7 -15 -3
-18 3 -4 -2 -4 -13 0 -14 6 -17 4 -13 -8 5 -12 -2 -14 -45 -10 -29 3 -53 9
-55 13 -6 15 -125 10 -146 -6 -22 -17 -40 -20 -32 -6 4 5 -4 7 -16 3 -17 -4
-20 -2 -15 11 4 10 2 17 -3 17 -6 0 -10 -4 -10 -9 0 -5 -12 -23 -27 -40 -50
-56 -76 -92 -208 -292 -72 -110 -135 -196 -139 -192 -4 5 -7 3 -5 -2 4 -19
-19 -60 -55 -97 -21 -22 -34 -43 -30 -51 3 -8 -3 -21 -14 -29 -20 -14 -142
-202 -142 -219 0 -5 -4 -9 -9 -9 -5 0 -12 -8 -16 -19 -16 -51 -89 -101 -149
-101 -59 0 -136 82 -136 144 0 33 20 68 243 421 105 165 245 388 312 495 67
107 198 317 291 465 94 149 173 275 176 280 3 6 3 37 -2 70 -6 51 -8 54 -9 19z
m-591 -937 c0 -1 -9 -10 -20 -20 -16 -13 -20 -14 -20 -3 0 8 8 17 18 19 9 3
18 5 20 6 1 0 2 0 2 -2z m70 -557 c-6 -11 -13 -20 -16 -20 -2 0 0 9 6 20 6 11
13 20 16 20 2 0 0 -9 -6 -20z"/>
<path d="M4687 5983 c-10 -10 -8 -63 2 -63 5 0 11 16 13 35 4 34 -1 43 -15 28z"/>
<path d="M6143 5797 c-73 -117 -100 -156 -105 -152 -2 3 -5 -1 -5 -8 0 -16
-65 -117 -75 -117 -5 0 -8 -9 -8 -20 0 -11 -3 -20 -7 -20 -5 0 -25 -27 -47
-60 -21 -33 -42 -60 -47 -60 -5 0 -8 -3 -8 -7 3 -20 -2 -34 -10 -29 -5 3 -8
-2 -7 -12 0 -9 -4 -16 -11 -15 -10 2 -26 -26 -28 -49 0 -5 -4 -7 -8 -5 -12 3
-39 -51 -32 -63 4 -6 1 -9 -7 -8 -7 2 -14 -7 -16 -20 -2 -12 -7 -20 -11 -18
-4 3 -24 -23 -44 -57 -66 -113 -72 -122 -77 -127 -8 -7 -75 -111 -89 -137 -6
-12 -11 -53 -11 -92 0 -60 3 -74 26 -101 55 -65 155 -94 227 -66 62 23 84 50
221 268 139 220 157 236 240 224 65 -10 115 -56 122 -111 6 -45 -21 -104 -107
-232 -27 -40 -49 -76 -49 -81 0 -5 -9 -17 -20 -27 -11 -10 -20 -23 -20 -30 0
-18 119 -25 447 -25 324 0 349 4 377 59 9 16 16 35 16 41 0 13 -72 132 -175
290 -45 69 -110 170 -145 225 -62 100 -121 191 -176 274 -16 24 -34 52 -40 62
-6 11 -14 16 -17 12 -4 -3 -7 2 -7 13 -1 24 -24 56 -35 46 -5 -4 -5 -2 -2 5 4
6 0 18 -8 26 -8 9 -15 20 -15 24 0 5 -7 18 -16 29 -8 10 -13 13 -9 7 11 -22
-4 -14 -16 8 -7 15 -8 19 0 15 6 -4 3 6 -6 23 -10 16 -21 27 -25 25 -11 -7
-41 43 -33 56 4 6 3 10 -2 9 -20 -3 -33 2 -33 14 0 8 -8 21 -17 30 -17 14 -20
12 -50 -36z"/>
</g>
</svg>
